<svg width="16" height="15" viewBox="0 0 16 15" fill="none" xmlns="http://www.w3.org/2000/svg">
<path d="M3.83333 3.30834V3.33334H1.95833C1.765 3.33334 1.5825 3.42251 1.46333 3.57584C1.345 3.72918 1.305 3.92834 1.35333 4.11584L3.85833 13.75H1.125C0.78 13.75 0.5 14.03 0.5 14.375C0.5 14.72 0.78 15 1.125 15H4.66667H11.3333H14.875C15.22 15 15.5 14.72 15.5 14.375C15.5 14.03 15.22 13.75 14.875 13.75H12.1417L14.6467 4.11584C14.6958 3.92834 14.655 3.72918 14.5367 3.57584C14.4175 3.42251 14.235 3.33334 14.0417 3.33334H12.1667V3.30834C12.1667 1.94418 11.1017 0.833344 9.79167 0.833344H6.20833C4.89833 0.833344 3.83333 1.94418 3.83333 3.30834ZM4.795 6.07834C4.91417 5.92334 5.0975 5.83334 5.29167 5.83334H10.7083C10.9025 5.83334 11.0858 5.92334 11.205 6.07834C11.3233 6.23251 11.3625 6.43334 11.3125 6.62084L9.85417 12.0375C9.78 12.31 9.5325 12.5 9.25 12.5H6.75C6.4675 12.5 6.22 12.31 6.14583 12.0375L4.6875 6.62084C4.6375 6.43334 4.6775 6.23251 4.795 6.07834Z" fill="#6F8A9C"/>
</svg>
