<svg width="52" height="52" viewBox="0 0 52 52" fill="none" xmlns="http://www.w3.org/2000/svg">
<circle cx="26" cy="26" r="26" fill="#384BF9" fill-opacity="0.15"/>
<path d="M22.7754 15.043C22.7754 14.4924 22.3692 14.0469 21.8672 14.0469H18.2344C17.7324 14.0469 17.3262 14.4924 17.3262 15.043V17.0352C17.3262 17.5857 17.7324 18.0313 18.2344 18.0313C18.7364 18.0313 19.1426 17.5857 19.1426 17.0352V16.0391H21.8672C22.3692 16.0391 22.7754 15.5935 22.7754 15.043Z" fill="#384BF9"/>
<path d="M32.7656 18.0313C33.2676 18.0313 33.6738 17.5857 33.6738 17.0352V15.043C33.6738 14.4924 33.2676 14.0469 32.7656 14.0469H29.1328C28.6308 14.0469 28.2246 14.4924 28.2246 15.043C28.2246 15.5935 28.6308 16.0391 29.1328 16.0391H31.8574V17.0352C31.8574 17.5857 32.2636 18.0313 32.7656 18.0313Z" fill="#384BF9"/>
<path d="M21.8672 35.9609H19.1426V34.9648C19.1426 34.4143 18.7364 33.9688 18.2344 33.9688C17.7324 33.9688 17.3262 34.4143 17.3262 34.9648V36.957C17.3262 37.5076 17.7324 37.9531 18.2344 37.9531H21.8672C22.3692 37.9531 22.7754 37.5076 22.7754 36.957C22.7754 36.4065 22.3692 35.9609 21.8672 35.9609Z" fill="#384BF9"/>
<path d="M32.7656 33.9688C32.2636 33.9688 31.8574 34.4143 31.8574 34.9648V35.9609H29.1328C28.6308 35.9609 28.2246 36.4065 28.2246 36.957C28.2246 37.5076 28.6308 37.9531 29.1328 37.9531H32.7656C33.2676 37.9531 33.6738 37.5076 33.6738 36.957V34.9648C33.6738 34.4143 33.2676 33.9688 32.7656 33.9688Z" fill="#384BF9"/>
<path d="M17.3262 21.0195C17.3262 19.3717 16.104 18.0312 14.6016 18.0312C13.0992 18.0312 11.8164 19.3717 11.8164 21.0195C11.8164 22.6673 13.0992 24.0078 14.6016 24.0078C16.104 24.0078 17.3262 22.6673 17.3262 21.0195Z" fill="#384BF9"/>
<path d="M19.1426 28.9883C19.1426 26.2422 17.1054 24.0078 14.6016 24.0078C12.0978 24.0078 10 26.2422 10 28.9883C10 29.5389 10.4062 29.9844 10.9082 29.9844H18.2344C18.7364 29.9844 19.1426 29.5389 19.1426 28.9883Z" fill="#384BF9"/>
<path d="M39.1836 21.0195C39.1836 19.3717 37.9008 18.0312 36.3984 18.0312C34.896 18.0312 33.6738 19.3717 33.6738 21.0195C33.6738 22.6673 34.896 24.0078 36.3984 24.0078C37.9008 24.0078 39.1836 22.6673 39.1836 21.0195Z" fill="#384BF9"/>
<path d="M36.3984 24.0078C33.8946 24.0078 31.8574 26.2422 31.8574 28.9883C31.8574 29.5389 32.2636 29.9844 32.7656 29.9844H40.0918C40.5938 29.9844 41 29.5389 41 28.9883C41 26.2422 38.9022 24.0078 36.3984 24.0078Z" fill="#384BF9"/>
<path d="M29.1328 22.0156C29.1328 19.8182 27.5036 18.0312 25.5 18.0312C23.4964 18.0312 21.8672 19.8182 21.8672 22.0156C21.8672 24.2131 23.4964 26 25.5 26C27.5036 26 29.1328 24.2131 29.1328 22.0156Z" fill="#384BF9"/>
<path d="M20.959 33.9687H30.041C30.543 33.9687 30.9492 33.5232 30.9492 32.9727V31.9766C30.9492 28.6809 28.5049 26 25.5 26C22.4951 26 20.0508 28.6809 20.0508 31.9766V32.9727C20.0508 33.5232 20.457 33.9687 20.959 33.9687Z" fill="#384BF9"/>
</svg>
