<svg width="20" height="18" viewBox="0 0 20 18" fill="none" xmlns="http://www.w3.org/2000/svg">
<path d="M10 7.07153C11.8769 7.07153 13.3984 5.55 13.3984 3.6731C13.3984 1.79619 11.8769 0.274658 10 0.274658C8.12309 0.274658 6.60156 1.79619 6.60156 3.6731C6.60156 5.55 8.12309 7.07153 10 7.07153Z" fill="#6F8A9C"/>
<path d="M16.875 7.07148C18.0615 7.07148 19.0234 6.10959 19.0234 4.92304C19.0234 3.73649 18.0615 2.7746 16.875 2.7746C15.6885 2.7746 14.7266 3.73649 14.7266 4.92304C14.7266 6.10959 15.6885 7.07148 16.875 7.07148Z" fill="#6F8A9C"/>
<path d="M3.125 7.07148C4.31155 7.07148 5.27344 6.10959 5.27344 4.92304C5.27344 3.73649 4.31155 2.7746 3.125 2.7746C1.93845 2.7746 0.976562 3.73649 0.976562 4.92304C0.976562 6.10959 1.93845 7.07148 3.125 7.07148Z" fill="#6F8A9C"/>
<path d="M5.2418 9.00082C4.39609 8.30793 3.6302 8.39965 2.65234 8.39965C1.18984 8.39965 0 9.58246 0 11.036V15.302C0 15.9332 0.515234 16.4465 1.14883 16.4465C3.88422 16.4465 3.55469 16.496 3.55469 16.3285C3.55469 13.3057 3.19664 11.0888 5.2418 9.00082Z" fill="#6F8A9C"/>
<path d="M10.9299 8.41523C9.22198 8.27277 7.73741 8.41687 6.4569 9.47383C4.31405 11.1902 4.72643 13.5013 4.72643 16.3285C4.72643 17.0765 5.33503 17.6965 6.0944 17.6965C14.3398 17.6965 14.668 17.9625 15.1569 16.8797C15.3173 16.5135 15.2733 16.6299 15.2733 13.1269C15.2733 10.3447 12.8642 8.41523 10.9299 8.41523Z" fill="#6F8A9C"/>
<path d="M17.3475 8.39961C16.3643 8.39961 15.6026 8.30883 14.7581 9.00078C16.7879 11.0733 16.4452 13.1389 16.4452 16.3285C16.4452 16.497 16.1716 16.4465 18.81 16.4465C19.4663 16.4465 19.9999 15.9148 19.9999 15.2613V11.0359C19.9999 9.58242 18.81 8.39961 17.3475 8.39961Z" fill="#6F8A9C"/>
</svg>
