<svg width="20" height="20" viewBox="0 0 20 20" fill="none" xmlns="http://www.w3.org/2000/svg">
<g clip-path="url(#clip0)">
<path d="M0.539715 8.69904C0.540173 8.69858 0.54063 8.69812 0.541088 8.69766L8.6995 0.539551C9.04725 0.19165 9.50959 0 10.0014 0C10.4932 0 10.9555 0.191498 11.3034 0.539398L19.4576 8.69339C19.4603 8.69614 19.4631 8.69904 19.4658 8.70178C20.1799 9.42001 20.1787 10.5853 19.4623 11.3017C19.135 11.6292 18.7027 11.8188 18.2405 11.8387C18.2218 11.8405 18.2028 11.8414 18.1838 11.8414H17.8586V17.8453C17.8586 19.0334 16.8919 20 15.7036 20H12.5118C12.1883 20 11.9258 19.7377 11.9258 19.4141V14.707C11.9258 14.1649 11.4848 13.7239 10.9427 13.7239H9.06007C8.51793 13.7239 8.07695 14.1649 8.07695 14.707V19.4141C8.07695 19.7377 7.81465 20 7.49101 20H4.29918C3.11082 20 2.14418 19.0334 2.14418 17.8453V11.8414H1.84266C1.35102 11.8414 0.888683 11.6499 0.54063 11.302C-0.176533 10.5844 -0.176838 9.41711 0.539715 8.69904Z" fill="#6F8A9C"/>
</g>
<defs>
<clipPath id="clip0">
<rect width="20" height="20" fill="white" transform="matrix(-1 0 0 1 20 0)"/>
</clipPath>
</defs>
</svg>
