<svg width="152" height="38" viewBox="0 0 152 38" fill="none" xmlns="http://www.w3.org/2000/svg">
<g clip-path="url(#clip0)">
<path d="M34.0588 8.46167H36.4482V11.55H43.7733V8.46167H46.1707V20.292H43.7733V13.6001H36.4456V20.292H34.0588V8.46167Z" fill="#006838"/>
<path d="M47.6643 14.3421C47.6643 13.4479 47.8264 12.6311 48.1534 11.889C48.4803 11.147 48.9374 10.509 49.5275 9.97783C50.1175 9.44664 50.8272 9.0329 51.6537 8.73928C52.4803 8.44566 53.3946 8.30151 54.3993 8.30151C55.3987 8.30151 56.313 8.44832 57.1422 8.73928C57.9715 9.0329 58.6811 9.44397 59.2712 9.97783C59.8612 10.5117 60.321 11.147 60.6453 11.889C60.9722 12.6311 61.1343 13.4479 61.1343 14.3421C61.1343 15.239 60.9722 16.0638 60.6453 16.8139C60.3183 17.5639 59.8612 18.2072 59.2712 18.7491C58.6811 19.2883 57.9715 19.7101 57.1422 20.009C56.313 20.308 55.3987 20.4601 54.3993 20.4601C53.3946 20.4601 52.4777 20.3106 51.6537 20.009C50.8298 19.7074 50.1202 19.2883 49.5275 18.7491C48.9374 18.2099 48.4776 17.5639 48.1534 16.8139C47.8264 16.0638 47.6643 15.239 47.6643 14.3421ZM50.0537 14.3421C50.0537 14.9534 50.1627 15.5033 50.3806 15.9917C50.5986 16.4802 50.9042 16.8993 51.2923 17.2436C51.6803 17.588 52.1401 17.8549 52.6717 18.0417C53.2006 18.2286 53.7774 18.322 54.402 18.322C55.0266 18.322 55.6007 18.2286 56.1322 18.0417C56.6611 17.8549 57.121 17.588 57.5063 17.2436C57.8944 16.8993 58.1974 16.4802 58.418 15.9917C58.6386 15.5033 58.7502 14.9534 58.7502 14.3421C58.7502 13.7308 58.6386 13.1836 58.418 12.7005C58.1974 12.2174 57.8917 11.8063 57.5063 11.47C57.1183 11.1336 56.6611 10.8774 56.1322 10.7012C55.6033 10.525 55.0266 10.4369 54.402 10.4369C53.7774 10.4369 53.2033 10.525 52.6717 10.7012C52.1428 10.8774 51.683 11.1336 51.2923 11.47C50.9042 11.8063 50.5986 12.2147 50.3806 12.7005C50.1627 13.1863 50.0537 13.7308 50.0537 14.3421Z" fill="#006838"/>
<path d="M62.1892 8.46167H64.5786V14.9774C64.5786 15.5113 64.6503 15.9891 64.7965 16.4028C64.9427 16.8192 65.1606 17.1716 65.4477 17.4598C65.7374 17.7481 66.0935 17.967 66.5215 18.1138C66.9494 18.2633 67.4464 18.338 68.0125 18.338C68.576 18.338 69.0703 18.2633 69.5009 18.1138C69.9315 17.9643 70.2903 17.7455 70.5773 17.4598C70.867 17.1716 71.0823 16.8192 71.2285 16.4028C71.3747 15.9864 71.4465 15.5113 71.4465 14.9774V8.46167H73.8359V15.2657C73.8359 16.0424 73.7056 16.7498 73.4452 17.3851C73.1847 18.0204 72.8046 18.5649 72.3076 19.0187C71.8106 19.4725 71.2019 19.8248 70.479 20.0704C69.7587 20.3186 68.9348 20.4414 68.0099 20.4414C67.0849 20.4414 66.2636 20.3186 65.5407 20.0704C64.8204 19.8222 64.2118 19.4725 63.7121 19.0187C63.2151 18.5649 62.835 18.0204 62.5745 17.3851C62.3141 16.7498 62.1838 16.0424 62.1838 15.2657V8.46167H62.1892Z" fill="#006838"/>
<path d="M76.1404 16.7711C76.5683 17.014 77.0015 17.2303 77.44 17.4251C77.8786 17.62 78.3357 17.7828 78.8088 17.9163C79.2819 18.0497 79.7763 18.1512 80.2972 18.2232C80.8182 18.2953 81.371 18.33 81.9584 18.33C82.668 18.33 83.2687 18.2846 83.7684 18.1912C84.2654 18.0978 84.6721 17.9697 84.9857 17.8042C85.2993 17.6413 85.5279 17.4438 85.6714 17.2169C85.8149 16.99 85.8867 16.7418 85.8867 16.4749C85.8867 16.0451 85.7086 15.7061 85.3525 15.4579C84.9963 15.2096 84.4462 15.0842 83.702 15.0842C83.375 15.0842 83.0322 15.1055 82.6707 15.1482C82.3092 15.1909 81.9425 15.239 81.573 15.287C81.2036 15.3377 80.8394 15.3831 80.4806 15.4258C80.1218 15.4685 79.7843 15.4899 79.468 15.4899C78.9417 15.4899 78.4341 15.4232 77.9504 15.2843C77.4666 15.1482 77.0361 14.9427 76.6613 14.6704C76.2865 14.3981 75.9889 14.0565 75.7683 13.6481C75.5477 13.2397 75.436 12.7619 75.436 12.2173C75.436 11.8943 75.4812 11.574 75.5689 11.2564C75.6566 10.9387 75.7975 10.6344 75.9915 10.3435C76.1855 10.0525 76.4354 9.78294 76.741 9.5347C77.0467 9.28378 77.4188 9.07024 77.852 8.88873C78.2852 8.70722 78.7876 8.56574 79.359 8.46164C79.9305 8.35754 80.579 8.30682 81.3072 8.30682C81.8335 8.30682 82.3651 8.33619 82.8966 8.39491C83.4282 8.45363 83.9491 8.53371 84.4515 8.64048C84.9565 8.74726 85.4428 8.87271 85.9106 9.02219C86.3784 9.17167 86.8116 9.33717 87.2156 9.51868L86.1684 11.4566C85.8362 11.3098 85.4801 11.1763 85.0973 11.0509C84.7146 10.9281 84.3159 10.8213 83.8986 10.7279C83.4813 10.6371 83.0508 10.565 82.6069 10.5117C82.1631 10.4583 81.7086 10.4316 81.2461 10.4316C80.5869 10.4316 80.0474 10.4796 79.6221 10.5757C79.1969 10.6718 78.8593 10.7946 78.6095 10.9441C78.357 11.0936 78.1842 11.2591 78.0859 11.4432C77.9876 11.6274 77.9397 11.8116 77.9397 11.9931C77.9397 12.3455 78.0992 12.6364 78.4155 12.8606C78.7318 13.0849 79.2155 13.197 79.8614 13.197C80.1218 13.197 80.4222 13.1783 80.7624 13.1409C81.1026 13.1035 81.4587 13.0608 81.8335 13.0155C82.2082 12.9701 82.5883 12.9274 82.979 12.89C83.3671 12.8526 83.7471 12.8339 84.1139 12.8339C84.8076 12.8339 85.4216 12.9113 85.9558 13.0688C86.49 13.2263 86.9392 13.4479 87.3007 13.7388C87.6622 14.0298 87.9359 14.3795 88.122 14.7905C88.308 15.2016 88.401 15.6634 88.401 16.1706C88.401 16.8512 88.2442 17.4598 87.9306 17.991C87.617 18.5222 87.1705 18.9733 86.5884 19.339C86.009 19.7047 85.3073 19.9823 84.4887 20.1718C83.6701 20.3613 82.7584 20.4548 81.7537 20.4548C81.0893 20.4548 80.4434 20.4121 79.8109 20.3293C79.1783 20.2466 78.5723 20.1264 77.9902 19.9743C77.4082 19.8221 76.858 19.6353 76.3317 19.4217C75.8055 19.2082 75.3217 18.9706 74.8726 18.7144L76.1404 16.7711Z" fill="#006838"/>
<path d="M89.8655 8.46167H99.8962V10.5651H92.2549V12.9274H99.0218V14.9027H92.2549V18.1939H100.056V20.2893H89.8681V8.46167H89.8655Z" fill="#006838"/>
<path d="M101.544 8.46167H103.933V11.55H111.258V8.46167H113.656V20.292H111.258V13.6001H103.933V20.292H101.544V8.46167Z" fill="#006838"/>
<path d="M115.15 14.3421C115.15 13.4479 115.313 12.6311 115.639 11.889C115.966 11.147 116.424 10.509 117.014 9.97783C117.604 9.44664 118.313 9.0329 119.14 8.73928C119.966 8.44566 120.881 8.30151 121.885 8.30151C122.885 8.30151 123.799 8.44832 124.628 8.73928C125.458 9.0329 126.167 9.44397 126.757 9.97783C127.347 10.5117 127.807 11.147 128.131 11.889C128.458 12.6311 128.62 13.4479 128.62 14.3421C128.62 15.239 128.458 16.0638 128.131 16.8139C127.804 17.5639 127.347 18.2072 126.757 18.7491C126.167 19.2883 125.458 19.7101 124.628 20.009C123.799 20.308 122.885 20.4601 121.885 20.4601C120.881 20.4601 119.964 20.3106 119.14 20.009C118.316 19.7074 117.606 19.2883 117.014 18.7491C116.424 18.2099 115.964 17.5639 115.639 16.8139C115.313 16.0638 115.15 15.239 115.15 14.3421ZM117.537 14.3421C117.537 14.9534 117.646 15.5033 117.864 15.9917C118.082 16.4802 118.388 16.8993 118.776 17.2436C119.164 17.588 119.624 17.8549 120.155 18.0417C120.684 18.2286 121.261 18.322 121.885 18.322C122.51 18.322 123.084 18.2286 123.616 18.0417C124.145 17.8549 124.604 17.588 124.99 17.2436C125.378 16.8993 125.681 16.4802 125.901 15.9917C126.122 15.5033 126.234 14.9534 126.234 14.3421C126.234 13.7308 126.122 13.1836 125.901 12.7005C125.681 12.2174 125.375 11.8063 124.99 11.47C124.602 11.1336 124.145 10.8774 123.616 10.7012C123.087 10.525 122.51 10.4369 121.885 10.4369C121.261 10.4369 120.687 10.525 120.155 10.7012C119.626 10.8774 119.166 11.1336 118.776 11.47C118.388 11.8063 118.082 12.2147 117.864 12.7005C117.646 13.1863 117.537 13.7308 117.537 14.3421Z" fill="#006838"/>
<path d="M130.119 8.46167H132.508V18.1859H139.358V20.2893H130.119V8.46167Z" fill="#006838"/>
<path d="M140.514 8.46167H144.833C146.093 8.46167 147.188 8.5978 148.119 8.87007C149.049 9.14234 149.817 9.53206 150.428 10.0392C151.04 10.5464 151.494 11.163 151.792 11.8864C152.089 12.6097 152.241 13.4239 152.241 14.3261C152.241 15.1829 152.092 15.9784 151.797 16.7071C151.499 17.4358 151.047 18.0658 150.442 18.5996C149.833 19.1308 149.065 19.5472 148.134 19.8489C147.204 20.1478 146.109 20.3 144.849 20.3L140.517 20.292V8.46167H140.514ZM145.421 18.2153C146.133 18.2153 146.76 18.1245 147.297 17.9403C147.834 17.7561 148.283 17.4945 148.642 17.1582C149.001 16.8192 149.272 16.4108 149.453 15.933C149.634 15.4525 149.724 14.9187 149.724 14.3288C149.724 13.7495 149.634 13.2264 149.453 12.7592C149.272 12.2921 149.001 11.897 148.642 11.5714C148.283 11.2457 147.834 10.9948 147.297 10.8187C146.76 10.6425 146.133 10.5544 145.421 10.5544H142.904V18.2206H145.421V18.2153Z" fill="#006838"/>
<path d="M44.8735 23.9143H46.4337L49.6284 27.0347L52.8232 23.9143H54.37L50.4497 27.7741L54.4019 31.6339H52.8311L49.6258 28.4681L46.4204 31.6312H44.8496L48.7912 27.7714L44.8735 23.9143Z" fill="#F7941D"/>
<path d="M66.7026 23.9143V24.8406H60.3237V27.3337H66.4076V28.2172H60.3237V30.7103H66.7026V31.6366H59.0586V23.9143H66.7026Z" fill="#F7941D"/>
<path d="M41.4372 23.9143V24.8406H35.0584V27.3337H41.1422V28.2172H35.0584V30.7103H41.4372V31.6366H33.7959V23.9143H41.4372Z" fill="#F7941D"/>
<path d="M76.3223 23.7495C77.9143 23.7495 79.4745 24.0351 80.527 24.5209L80.3516 25.634C79.331 25.0601 77.8798 24.7291 76.3329 24.7291C73.9727 24.7291 72.5561 25.8422 72.5561 27.7721C72.5561 29.6673 73.9834 30.8151 76.3329 30.8151C77.8691 30.8151 79.3416 30.4841 80.3622 29.9102L80.527 31.0233C79.4718 31.5091 77.9143 31.7947 76.3223 31.7947C73.1275 31.7947 71.2378 30.2839 71.2378 27.7694C71.2378 25.2603 73.1275 23.7495 76.3223 23.7495Z" fill="#F7941D"/>
<path d="M85.2708 23.9143H86.5332V28.017C86.5332 29.7707 87.6522 30.8171 89.5313 30.8171C91.421 30.8171 92.5294 29.7814 92.5294 28.017V23.9143H93.7918V28.017C93.7918 30.3767 92.1998 31.7994 89.5313 31.7994C86.8628 31.7994 85.2708 30.3767 85.2708 28.017V23.9143Z" fill="#F7941D"/>
<path d="M98.2937 24.8726V23.9143H106.618V24.8726H103.104L103.094 31.6339H101.831V24.8726H98.2937Z" fill="#F7941D"/>
<path d="M112.601 23.9143V31.6339H111.339V23.9143H112.601Z" fill="#F7941D"/>
<path d="M118.664 23.9143L122.058 31.0039L125.463 23.9143H126.845L123.124 31.6339H121.005L117.271 23.9143H118.664Z" fill="#F7941D"/>
<path d="M139.086 23.9143V24.8406H132.708V27.3337H138.791V28.2172H132.708V30.7103H139.086V31.6366H131.445V23.9143H139.086Z" fill="#F7941D"/>
<path d="M143.852 29.9442C144.346 30.2191 144.96 30.4513 145.675 30.6168C146.39 30.7823 147.123 30.8704 147.881 30.8704C149.781 30.8704 150.967 30.3633 150.967 29.469C150.967 28.8391 150.297 28.4654 149.101 28.3666L147.07 28.1905C144.787 28.0143 143.644 27.2856 143.644 26.0177C143.644 24.5736 145.072 23.7461 147.674 23.7461C149.244 23.7461 150.77 24.0317 151.815 24.5175L151.65 25.5986C150.672 25.0247 149.191 24.6723 147.642 24.6723C145.895 24.6723 144.896 25.1581 144.896 25.9616C144.896 26.6343 145.664 27.0533 147.06 27.1735L149.125 27.3496C151.057 27.5151 152.232 28.1985 152.232 29.4343C152.232 30.9238 150.706 31.794 147.905 31.794C147.126 31.794 146.369 31.7273 145.611 31.5965C144.864 31.4523 144.216 31.2655 143.679 31.0226L143.852 29.9442Z" fill="#F7941D"/>
<path d="M12.3907 0.229492C12.3907 0.752673 12.3907 1.081 12.3907 1.40932C12.3907 8.16262 12.4864 14.9213 12.3429 21.6719C12.2871 24.2611 12.6805 26.5193 14.3097 28.588C15.4473 30.0348 16.3536 31.6657 17.4035 33.2726C17.943 32.7041 18.4108 32.261 18.8254 31.7698C20.6859 29.565 22.3125 27.2294 22.6288 24.2451C22.6713 23.8527 22.6182 23.2388 22.3736 23.0679C21.3929 22.3793 20.3165 21.824 19.0885 21.1087C19.2188 23.3989 19.1949 25.4543 17.6932 27.2854C17.0898 26.2844 16.1463 25.3956 16.0533 24.4266C15.822 22.0162 15.9762 19.5658 15.9762 16.998C18.2566 18.3113 20.4015 19.5471 22.6926 20.8658C22.6926 19.6432 22.6474 18.6529 22.7085 17.6706C22.7511 16.9873 22.48 16.6269 21.9085 16.3093C20.1331 15.319 18.3736 14.294 16.638 13.2369C16.3377 13.0554 15.9868 12.6577 15.9762 12.3507C15.9151 10.4182 15.947 8.48293 15.947 6.513C19.0806 7.77023 19.1231 7.82896 19.1231 10.9227C19.1231 11.3658 19.1071 11.8115 19.1311 12.252C19.1417 12.4415 19.1709 12.7244 19.2932 12.7992C20.359 13.4665 21.446 14.0964 22.7005 14.8412C22.7005 11.9503 22.7218 9.3291 22.6713 6.70786C22.666 6.40356 22.3099 6.00583 22.0095 5.82165C20.5371 4.91676 19.0274 4.06526 17.531 3.20041C15.8699 2.24214 14.2087 1.28119 12.3907 0.229492ZM6.72686 30.5793C6.81723 30.6033 6.91026 30.6274 7.00063 30.6514C7.93885 29.202 8.90896 27.7739 9.79934 26.2951C10.0784 25.8306 10.2831 25.2381 10.2831 24.7015C10.315 16.9232 10.3043 9.14492 10.3017 1.36394C10.3017 1.04363 10.2671 0.723311 10.2405 0.288217C9.27574 0.835421 8.44384 1.34792 7.57472 1.78569C6.94481 2.10333 6.74015 2.54377 6.74812 3.24579C6.78533 6.14464 6.77205 9.04615 6.75078 11.945C6.74813 12.2867 6.68168 12.7832 6.45842 12.938C5.58133 13.5466 4.63247 14.0484 3.53478 14.6917C3.53478 11.0855 3.53478 7.70083 3.53478 4.16936C2.39456 4.82601 1.37927 5.36254 0.425098 5.99516C0.185891 6.15265 0.0290782 6.61176 0.0264203 6.93208C0.00249965 12.4255 -0.0161105 17.9189 0.0210994 23.4123C0.0397044 26.4553 1.50153 28.8843 3.57199 31.0678C3.57199 30.7395 3.57199 30.4111 3.57199 30.0828C3.57199 26.6021 3.56402 23.1213 3.58528 19.6432C3.58794 19.2989 3.64376 18.7944 3.86436 18.6423C4.71753 18.0523 5.64778 17.5772 6.72686 16.9553C6.72686 21.6212 6.72686 26.1002 6.72686 30.5793Z" fill="url(#paint0_linear)" stroke="url(#paint1_linear)" stroke-miterlimit="10"/>
<path d="M11.3593 27.7926C9.80981 30.195 8.35065 32.4585 6.83301 34.8128C8.19118 35.8245 9.4696 36.8228 10.8065 37.733C11.0696 37.9119 11.6623 37.9092 11.9255 37.7304C13.2597 36.8148 14.5355 35.8165 15.883 34.8075C14.3601 32.4452 12.9009 30.1816 11.3593 27.7926Z" fill="url(#paint2_linear)" stroke="url(#paint3_linear)" stroke-miterlimit="10"/>
</g>
<defs>
<linearGradient id="paint0_linear" x1="0.00374555" y1="16.7524" x2="22.7121" y2="16.7524" gradientUnits="userSpaceOnUse">
<stop stop-color="#00D29D"/>
<stop offset="1" stop-color="#00889D"/>
</linearGradient>
<linearGradient id="paint1_linear" x1="22.5876" y1="28.2607" x2="0.226367" y2="5.99532" gradientUnits="userSpaceOnUse">
<stop stop-color="#00D29D"/>
<stop offset="1" stop-color="#00889D"/>
</linearGradient>
<linearGradient id="paint2_linear" x1="6.83274" y1="32.8285" x2="15.8828" y2="32.8285" gradientUnits="userSpaceOnUse">
<stop stop-color="#FFF33B"/>
<stop offset="0.0401" stop-color="#FEE72E"/>
<stop offset="0.1171" stop-color="#FED51B"/>
<stop offset="0.1964" stop-color="#FDCA10"/>
<stop offset="0.2809" stop-color="#FDC70C"/>
<stop offset="0.6685" stop-color="#F3903F"/>
<stop offset="0.8876" stop-color="#ED683C"/>
<stop offset="1" stop-color="#E93E3A"/>
</linearGradient>
<linearGradient id="paint3_linear" x1="14.3473" y1="36.5595" x2="8.34032" y2="30.5782" gradientUnits="userSpaceOnUse">
<stop offset="0.2809" stop-color="#FDC70C"/>
<stop offset="0.6685" stop-color="#F3903F"/>
<stop offset="0.8876" stop-color="#ED683C"/>
<stop offset="1" stop-color="#E93E3A"/>
</linearGradient>
<clipPath id="clip0">
<rect width="152" height="38" fill="white"/>
</clipPath>
</defs>
</svg>
