<svg width="325" height="82" viewBox="0 0 325 82" fill="none" xmlns="http://www.w3.org/2000/svg">
<path d="M71.6978 18.5778H76.7998V25.1723H92.4408V18.5778H97.5599V43.8387H92.4408V29.5496H76.7941V43.8387H71.6978V18.5778Z" fill="white"/>
<path d="M100.751 31.1341C100.751 29.2247 101.097 27.4806 101.795 25.8961C102.493 24.3116 103.469 22.9493 104.729 21.8151C105.989 20.6809 107.504 19.7974 109.269 19.1705C111.034 18.5435 112.987 18.2357 115.132 18.2357C117.266 18.2357 119.218 18.5492 120.989 19.1705C122.759 19.7974 124.275 20.6752 125.535 21.8151C126.794 22.955 127.776 24.3116 128.469 25.8961C129.167 27.4806 129.513 29.2247 129.513 31.1341C129.513 33.0492 129.167 34.8104 128.469 36.412C127.771 38.0136 126.794 39.3872 125.535 40.5442C124.275 41.6956 122.759 42.5961 120.989 43.2345C119.218 43.8728 117.266 44.1977 115.132 44.1977C112.987 44.1977 111.029 43.8785 109.269 43.2345C107.51 42.5904 105.995 41.6956 104.729 40.5442C103.469 39.3929 102.487 38.0136 101.795 36.412C101.097 34.8104 100.751 33.0492 100.751 31.1341ZM105.853 31.1341C105.853 32.4393 106.085 33.6134 106.551 34.6565C107.016 35.6995 107.669 36.5944 108.497 37.3296C109.326 38.0649 110.308 38.6348 111.443 39.0338C112.572 39.4328 113.804 39.6323 115.138 39.6323C116.471 39.6323 117.697 39.4328 118.832 39.0338C119.961 38.6348 120.943 38.0649 121.766 37.3296C122.595 36.5944 123.242 35.6995 123.713 34.6565C124.184 33.6134 124.422 32.4393 124.422 31.1341C124.422 29.8289 124.184 28.6604 123.713 27.6288C123.242 26.5971 122.589 25.7194 121.766 25.0012C120.938 24.2831 119.961 23.7359 118.832 23.3597C117.703 22.9835 116.471 22.7955 115.138 22.7955C113.804 22.7955 112.578 22.9835 111.443 23.3597C110.314 23.7359 109.332 24.2831 108.497 25.0012C107.669 25.7194 107.016 26.5914 106.551 27.6288C106.085 28.6661 105.853 29.8289 105.853 31.1341Z" fill="white"/>
<path d="M131.764 18.5778H136.866V32.4907C136.866 33.6306 137.02 34.6508 137.332 35.5343C137.644 36.4234 138.109 37.1758 138.722 37.7914C139.341 38.4069 140.101 38.8743 141.015 39.1878C141.929 39.507 142.99 39.6665 144.199 39.6665C145.402 39.6665 146.458 39.507 147.377 39.1878C148.296 38.8686 149.062 38.4012 149.675 37.7914C150.294 37.1758 150.754 36.4234 151.066 35.5343C151.378 34.6451 151.531 33.6306 151.531 32.4907V18.5778H156.633V33.1062C156.633 34.7648 156.355 36.2752 155.799 37.6318C155.243 38.9883 154.431 40.151 153.37 41.12C152.309 42.0889 151.009 42.8413 149.465 43.3656C147.927 43.8957 146.168 44.1579 144.193 44.1579C142.218 44.1579 140.464 43.8957 138.921 43.3656C137.383 42.8356 136.083 42.0889 135.016 41.12C133.955 40.151 133.143 38.9883 132.587 37.6318C132.031 36.2752 131.753 34.7648 131.753 33.1062V18.5778H131.764Z" fill="white"/>
<path d="M161.553 36.3201C162.467 36.8388 163.392 37.3005 164.328 37.7165C165.265 38.1326 166.241 38.4803 167.251 38.7653C168.261 39.0503 169.317 39.2669 170.429 39.4207C171.541 39.5746 172.722 39.6487 173.976 39.6487C175.491 39.6487 176.774 39.5518 177.841 39.3524C178.902 39.1529 179.771 38.8793 180.44 38.5259C181.11 38.1782 181.598 37.7564 181.905 37.272C182.211 36.7875 182.364 36.2574 182.364 35.6875C182.364 34.7698 181.984 34.046 181.223 33.5159C180.463 32.9858 179.288 32.7179 177.699 32.7179C177.001 32.7179 176.269 32.7635 175.497 32.8547C174.725 32.9459 173.942 33.0485 173.153 33.1511C172.364 33.2594 171.587 33.3563 170.821 33.4475C170.055 33.5387 169.334 33.5843 168.658 33.5843C167.535 33.5843 166.451 33.4418 165.418 33.1454C164.385 32.8547 163.466 32.4159 162.665 31.8345C161.865 31.2531 161.23 30.5236 160.759 29.6515C160.287 28.7795 160.049 27.7592 160.049 26.5965C160.049 25.9068 160.146 25.2229 160.333 24.5446C160.52 23.8663 160.821 23.2166 161.235 22.5953C161.65 21.974 162.183 21.3984 162.836 20.8683C163.488 20.3325 164.283 19.8766 165.208 19.489C166.133 19.1014 167.206 18.7993 168.426 18.577C169.646 18.3548 171.031 18.2465 172.586 18.2465C173.709 18.2465 174.844 18.3092 175.98 18.4345C177.115 18.5599 178.227 18.7309 179.3 18.9589C180.378 19.1869 181.416 19.4548 182.415 19.774C183.414 20.0932 184.339 20.4465 185.202 20.8341L182.966 24.9721C182.256 24.6586 181.496 24.3736 180.679 24.1057C179.861 23.8435 179.01 23.6156 178.119 23.4161C177.228 23.2223 176.309 23.0684 175.361 22.9544C174.413 22.8404 173.443 22.7834 172.455 22.7834C171.048 22.7834 169.896 22.886 168.988 23.0912C168.08 23.2964 167.359 23.5586 166.825 23.8777C166.286 24.1969 165.917 24.5503 165.707 24.9436C165.497 25.3369 165.395 25.7301 165.395 26.1177C165.395 26.8701 165.736 27.4913 166.411 27.9701C167.086 28.4489 168.119 28.6883 169.498 28.6883C170.055 28.6883 170.696 28.6484 171.422 28.5686C172.149 28.4888 172.909 28.3976 173.709 28.3007C174.51 28.2038 175.321 28.1126 176.155 28.0328C176.984 27.953 177.796 27.9131 178.579 27.9131C180.06 27.9131 181.371 28.0784 182.512 28.4147C183.652 28.751 184.612 29.224 185.383 29.8453C186.155 30.4666 186.74 31.2132 187.137 32.091C187.534 32.9687 187.733 33.9548 187.733 35.0377C187.733 36.4911 187.398 37.7906 186.728 38.9249C186.059 40.0591 185.105 41.0224 183.862 41.8032C182.625 42.5841 181.127 43.1768 179.379 43.5815C177.631 43.9862 175.684 44.1857 173.539 44.1857C172.12 44.1857 170.741 44.0945 169.391 43.9178C168.04 43.7411 166.746 43.4846 165.503 43.1597C164.26 42.8349 163.085 42.4359 161.962 41.9799C160.838 41.5239 159.805 41.0167 158.846 40.4695L161.553 36.3201Z" fill="white"/>
<path d="M190.859 18.5778H212.278V23.0691H195.961V28.1133H210.411V32.3311H195.961V39.3588H212.618V43.833H190.865V18.5778H190.859Z" fill="white"/>
<path d="M215.797 18.5778H220.899V25.1723H236.54V18.5778H241.66V43.8387H236.54V29.5496H220.899V43.8387H215.797V18.5778Z" fill="white"/>
<path d="M244.85 31.1341C244.85 29.2247 245.197 27.4806 245.895 25.8961C246.593 24.3116 247.569 22.9493 248.829 21.8151C250.089 20.6809 251.604 19.7974 253.369 19.1705C255.134 18.5435 257.086 18.2357 259.231 18.2357C261.365 18.2357 263.318 18.5492 265.088 19.1705C266.859 19.7974 268.374 20.6752 269.634 21.8151C270.894 22.955 271.876 24.3116 272.568 25.8961C273.266 27.4806 273.613 29.2247 273.613 31.1341C273.613 33.0492 273.266 34.8104 272.568 36.412C271.87 38.0136 270.894 39.3872 269.634 40.5442C268.374 41.6956 266.859 42.5961 265.088 43.2345C263.318 43.8728 261.365 44.1977 259.231 44.1977C257.086 44.1977 255.128 43.8785 253.369 43.2345C251.61 42.5904 250.094 41.6956 248.829 40.5442C247.569 39.3929 246.587 38.0136 245.895 36.412C245.197 34.8104 244.85 33.0492 244.85 31.1341ZM249.947 31.1341C249.947 32.4393 250.179 33.6134 250.645 34.6565C251.11 35.6995 251.763 36.5944 252.591 37.3296C253.42 38.0649 254.402 38.6348 255.537 39.0338C256.666 39.4328 257.898 39.6323 259.231 39.6323C260.565 39.6323 261.791 39.4328 262.926 39.0338C264.055 38.6348 265.037 38.0649 265.86 37.3296C266.689 36.5944 267.336 35.6995 267.807 34.6565C268.278 33.6134 268.516 32.4393 268.516 31.1341C268.516 29.8289 268.278 28.6604 267.807 27.6288C267.336 26.5971 266.683 25.7194 265.86 25.0012C265.032 24.2831 264.055 23.7359 262.926 23.3597C261.797 22.9835 260.565 22.7955 259.231 22.7955C257.898 22.7955 256.672 22.9835 255.537 23.3597C254.407 23.7359 253.426 24.2831 252.591 25.0012C251.763 25.7194 251.11 26.5914 250.645 27.6288C250.179 28.6661 249.947 29.8289 249.947 31.1341Z" fill="white"/>
<path d="M276.813 18.5778H281.915V39.3417H296.54V43.833H276.813V18.5778Z" fill="white"/>
<path d="M299.01 18.5778H308.232C310.922 18.5778 313.261 18.8684 315.247 19.4498C317.233 20.0312 318.873 20.8633 320.179 21.9463C321.484 23.0292 322.454 24.3458 323.09 25.8904C323.726 27.4351 324.049 29.1735 324.049 31.0999C324.049 32.9295 323.731 34.628 323.101 36.1841C322.466 37.7401 321.501 39.0852 320.207 40.2251C318.907 41.3594 317.267 42.2485 315.281 42.8926C313.295 43.5309 310.956 43.8558 308.266 43.8558L299.016 43.8387V18.5778H299.01ZM309.487 39.4044C311.007 39.4044 312.347 39.2106 313.493 38.8173C314.64 38.424 315.599 37.8655 316.365 37.1473C317.131 36.4234 317.71 35.5514 318.096 34.5312C318.482 33.5052 318.675 32.3653 318.675 31.1056C318.675 29.8688 318.482 28.7517 318.096 27.7542C317.71 26.7568 317.131 25.9132 316.365 25.2179C315.599 24.5225 314.64 23.9868 313.493 23.6106C312.347 23.2344 311.007 23.0463 309.487 23.0463H304.112V39.4158H309.487V39.4044Z" fill="white"/>
<path d="M94.7891 51.5731H98.1205L104.942 58.236L111.764 51.5731H115.067L106.696 59.8149L115.135 68.0566H111.781L104.936 61.2968L98.0921 68.0509H94.738L103.154 59.8092L94.7891 51.5731Z" fill="#F9F9F9"/>
<path d="M141.398 51.5731V53.5509H127.778V58.8744H140.768V60.761H127.778V66.0845H141.398V68.0623H125.076V51.5731H141.398Z" fill="#F9F9F9"/>
<path d="M87.4511 51.5731V53.5509H73.8305V58.8744H86.8212V60.761H73.8305V66.0845H87.4511V68.0623H71.1348V51.5731H87.4511Z" fill="#F9F9F9"/>
<path d="M161.941 51.2194C165.34 51.2194 168.671 51.8292 170.919 52.8666L170.544 55.2433C168.365 54.0179 165.266 53.3111 161.963 53.3111C156.924 53.3111 153.899 55.6879 153.899 59.8088C153.899 63.8555 156.946 66.3064 161.963 66.3064C165.244 66.3064 168.388 65.5996 170.567 64.3742L170.919 66.751C168.666 67.7883 165.34 68.3982 161.941 68.3982C155.119 68.3982 151.084 65.1722 151.084 59.8031C151.084 54.4454 155.119 51.2194 161.941 51.2194Z" fill="#F9F9F9"/>
<path d="M181.047 51.5731H183.743V60.3335C183.743 64.0782 186.132 66.3125 190.144 66.3125C194.179 66.3125 196.546 64.101 196.546 60.3335V51.5731H199.242V60.3335C199.242 65.372 195.842 68.41 190.144 68.41C184.446 68.41 181.047 65.372 181.047 60.3335V51.5731Z" fill="#F9F9F9"/>
<path d="M208.857 53.6193V51.5731H226.632V53.6193H219.129L219.107 68.0566H216.411V53.6193H208.857Z" fill="#F9F9F9"/>
<path d="M239.406 51.5731V68.0566H236.711V51.5731H239.406Z" fill="#F9F9F9"/>
<path d="M252.35 51.5731L259.597 66.7115L266.867 51.5731H269.818L261.873 68.0566H257.349L249.376 51.5731H252.35Z" fill="#F9F9F9"/>
<path d="M295.959 51.5731V53.5509H282.338V58.8744H295.329V60.761H282.338V66.0845H295.959V68.0623H279.642V51.5731H295.959Z" fill="#F9F9F9"/>
<path d="M306.134 64.4486C307.189 65.0357 308.5 65.5316 310.027 65.8849C311.554 66.2383 313.12 66.4264 314.737 66.4264C318.795 66.4264 321.326 65.3435 321.326 63.4341C321.326 62.089 319.896 61.291 317.342 61.0801L313.007 60.7039C308.132 60.3278 305.691 58.7718 305.691 56.0644C305.691 52.9809 308.739 51.214 314.295 51.214C317.649 51.214 320.906 51.8239 323.137 52.8612L322.785 55.1696C320.697 53.9441 317.535 53.1918 314.227 53.1918C310.498 53.1918 308.364 54.2291 308.364 55.9447C308.364 57.381 310.004 58.2759 312.984 58.5324L317.394 58.9085C321.519 59.2619 324.028 60.721 324.028 63.36C324.028 66.5404 320.77 68.3985 314.789 68.3985C313.126 68.3985 311.508 68.256 309.891 67.9767C308.296 67.6689 306.911 67.27 305.765 66.7513L306.134 64.4486Z" fill="#F9F9F9"/>
<path d="M27.4741 1C27.4741 2.11714 27.4741 2.8182 27.4741 3.51926C27.4741 17.9394 27.6784 32.371 27.3719 46.7855C27.2528 52.3142 28.0927 57.1361 31.5716 61.5533C34.0006 64.6426 35.9359 68.1251 38.1776 71.5563C39.3297 70.3422 40.3286 69.3961 41.2139 68.3474C45.1866 63.6394 48.6599 58.6522 49.3352 52.28C49.426 51.4421 49.3125 50.1312 48.7904 49.7664C46.6962 48.2959 44.3978 47.1104 41.7758 45.5829C42.0539 50.4732 42.0028 54.8619 38.7963 58.7719C37.508 56.6345 35.4932 54.7365 35.2946 52.6675C34.8008 47.5207 35.13 42.2884 35.13 36.8054C39.9994 39.6096 44.5794 42.2485 49.4714 45.0642C49.4714 42.4537 49.375 40.3391 49.5055 38.2417C49.5963 36.7826 49.0174 36.0131 47.7972 35.3348C44.0061 33.2203 40.2491 31.0316 36.5432 28.7745C35.9019 28.3869 35.1527 27.5377 35.13 26.8822C34.9995 22.7557 35.0676 18.6234 35.0676 14.417C41.7587 17.1016 41.8495 17.227 41.8495 23.8329C41.8495 24.779 41.8155 25.7309 41.8666 26.6713C41.8893 27.076 41.9517 27.6802 42.2127 27.8398C44.4885 29.2647 46.8097 30.6098 49.4885 32.2C49.4885 26.0273 49.5339 20.4302 49.426 14.8331C49.4147 14.1833 48.6542 13.3341 48.0129 12.9408C44.8688 11.0086 41.6452 9.19043 38.45 7.34374C34.903 5.29755 31.356 3.24567 27.4741 1ZM15.3857 65.8053C15.5787 65.8566 15.7773 65.9079 15.9703 65.9592C17.9737 62.8643 20.0452 59.8149 21.9464 56.6573C22.5423 55.6656 22.9792 54.4002 22.9792 53.2546C23.0473 36.6458 23.0247 20.0369 23.019 3.42236C23.019 2.7384 22.9452 2.05444 22.8885 1.12539C20.8283 2.29383 19.052 3.38816 17.1961 4.32291C15.8511 5.00117 15.4141 5.94162 15.4311 7.44063C15.5106 13.6305 15.4822 19.826 15.4368 26.0159C15.4311 26.7454 15.2893 27.8056 14.8125 28.1362C12.9397 29.4357 10.9136 30.5072 8.56974 31.8808C8.56974 24.1806 8.56974 16.9534 8.56974 9.41272C6.13504 10.8148 3.9671 11.9605 1.92968 13.3113C1.4189 13.6476 1.08406 14.6279 1.07839 15.3119C1.02731 27.0418 0.987572 38.7717 1.06703 50.5017C1.10675 56.9993 4.22816 62.186 8.6492 66.8483C8.6492 66.1473 8.6492 65.4462 8.6492 64.7452C8.6492 57.3128 8.63217 49.8804 8.67757 42.4537C8.68324 41.7185 8.80243 40.6412 9.27348 40.3164C11.0952 39.0567 13.0816 38.0422 15.3857 36.7142C15.3857 46.6772 15.3857 56.2412 15.3857 65.8053Z" fill="white"/>
<path d="M27.4577 1C27.4577 2.11714 27.4577 2.8182 27.4577 3.51926C27.4577 17.9394 27.662 32.371 27.3556 46.7855C27.2364 52.3142 28.0763 57.1361 31.5553 61.5533C33.9843 64.6426 35.9195 68.1251 38.1612 71.5563C39.3133 70.3422 40.3122 69.3961 41.1975 68.3474C45.1702 63.6394 48.6435 58.6522 49.3188 52.28C49.4096 51.4421 49.2961 50.1312 48.774 49.7664C46.6798 48.2959 44.3813 47.1104 41.7594 45.5829C42.0375 50.4732 41.9864 54.8619 38.7799 58.7719C37.4916 56.6345 35.4769 54.7365 35.2782 52.6675C34.7845 47.5207 35.1136 42.2884 35.1136 36.8054C39.983 39.6096 44.5629 42.2485 49.455 45.0642C49.455 42.4537 49.3585 40.3391 49.4891 38.2417C49.5799 36.7826 49.001 36.0131 47.7808 35.3348C43.9897 33.2203 40.2327 31.0316 36.5268 28.7745C35.8855 28.3869 35.1363 27.5377 35.1136 26.8822C34.9831 22.7557 35.0512 18.6234 35.0512 14.417C41.7423 17.1016 41.8331 17.227 41.8331 23.8329C41.8331 24.779 41.7991 25.7309 41.8502 26.6713C41.8729 27.076 41.9353 27.6802 42.1964 27.8398C44.4721 29.2647 46.7933 30.6098 49.472 32.2C49.472 26.0273 49.5174 20.4302 49.4096 14.8331C49.3983 14.1833 48.6378 13.3341 47.9965 12.9408C44.8524 11.0086 41.6288 9.19043 38.4337 7.34374C34.8866 5.29755 31.3396 3.24567 27.4577 1ZM15.3637 65.8053C15.5567 65.8566 15.7553 65.9079 15.9483 65.9592C17.9517 62.8643 20.0231 59.8149 21.9243 56.6573C22.5202 55.6656 22.9572 54.4002 22.9572 53.2546C23.0253 36.6458 23.0026 20.0369 22.997 3.42236C22.997 2.7384 22.9232 2.05444 22.8664 1.12539C20.8063 2.29383 19.03 3.38816 17.1741 4.32291C15.8291 5.00117 15.3921 5.94162 15.4091 7.44063C15.4886 13.6305 15.4602 19.826 15.4148 26.0159C15.4091 26.7454 15.2673 27.8056 14.7905 28.1362C12.9177 29.4357 10.8916 30.5072 8.54774 31.8808C8.54774 24.1806 8.54774 16.9534 8.54774 9.41272C6.11306 10.8148 3.94512 11.9605 1.9077 13.3113C1.39693 13.6476 1.06209 14.6279 1.05641 15.3119C1.00534 27.0418 0.9656 38.7717 1.04505 50.5017C1.08478 56.9993 4.20618 62.186 8.62721 66.8483C8.62721 66.1473 8.62721 65.4462 8.62721 64.7452C8.62721 57.3128 8.61017 49.8804 8.65558 42.4537C8.66125 41.7185 8.78044 40.6412 9.25149 40.3164C11.0732 39.0567 13.0596 38.0422 15.3637 36.7142C15.3637 46.6772 15.3637 56.2412 15.3637 65.8053Z" fill="white" stroke="white" stroke-miterlimit="10"/>
<path d="M25.2575 59.8546C21.9488 64.9843 18.8331 69.8176 15.5925 74.8447C18.4926 77.0049 21.2224 79.1366 24.077 81.0802C24.6389 81.4621 25.9045 81.4564 26.4663 81.0745C29.3153 79.1195 32.0394 76.9878 34.9168 74.8333C31.6649 69.7891 28.5491 64.9558 25.2575 59.8546Z" fill="url(#paint0_linear)" stroke="url(#paint1_linear)" stroke-miterlimit="10"/>
<defs>
<linearGradient id="paint0_linear" x1="15.592" y1="70.6077" x2="34.9163" y2="70.6077" gradientUnits="userSpaceOnUse">
<stop stop-color="#FFF33B"/>
<stop offset="0.0401" stop-color="#FEE72E"/>
<stop offset="0.1171" stop-color="#FED51B"/>
<stop offset="0.1964" stop-color="#FDCA10"/>
<stop offset="0.2809" stop-color="#FDC70C"/>
<stop offset="0.6685" stop-color="#F3903F"/>
<stop offset="0.8876" stop-color="#ED683C"/>
<stop offset="1" stop-color="#E93E3A"/>
</linearGradient>
<linearGradient id="paint1_linear" x1="31.6376" y1="78.5743" x2="18.811" y2="65.8027" gradientUnits="userSpaceOnUse">
<stop offset="0.2809" stop-color="#FDC70C"/>
<stop offset="0.6685" stop-color="#F3903F"/>
<stop offset="0.8876" stop-color="#ED683C"/>
<stop offset="1" stop-color="#E93E3A"/>
</linearGradient>
</defs>
</svg>
