<svg width="32" height="32" viewBox="0 0 32 32" fill="none" xmlns="http://www.w3.org/2000/svg">
<path d="M14.6465 32C17.0613 32 19.0813 30.2786 19.5452 28H9.7478C10.2119 30.2786 12.2319 32 14.6465 32Z" fill="#717F88"/>
<path d="M23.9957 15.9988C23.9903 15.9988 23.985 16 23.9796 16C18.8343 16 14.6463 11.8132 14.6463 6.66675C14.6463 5.25195 14.9718 3.91455 15.5384 2.71191C15.245 2.68408 14.9476 2.66675 14.6463 2.66675C9.4918 2.66675 5.31309 6.84521 5.31309 12V15.7173C5.31309 18.356 4.15708 20.8467 2.129 22.5613C1.45298 23.1387 1.15293 24.0586 1.39561 24.9561C1.67832 26 2.7103 26.6667 3.79307 26.6667H25.493C26.629 26.6667 27.6998 25.9307 27.9303 24.8174C28.109 23.9561 27.8023 23.0959 27.1344 22.5347C25.1957 20.9094 24.0743 18.5212 23.9957 15.9988Z" fill="#717F88"/>
<path d="M30.6465 6.66675C30.6465 10.3486 27.6619 13.3333 23.9797 13.3333C20.2979 13.3333 17.3132 10.3486 17.3132 6.66675C17.3132 2.98486 20.2979 0 23.9797 0C27.6619 0 30.6465 2.98486 30.6465 6.66675Z" fill="#EB351C"/>
</svg>
