<svg width="20" height="20" viewBox="0 0 20 20" fill="none" xmlns="http://www.w3.org/2000/svg">
<path d="M17.5312 0H9.99997C8.63644 0 7.53125 1.10321 7.53125 2.46872V13.7656C7.53125 14.2448 8.08087 14.5251 8.46875 14.2343L10.8229 12.4687H17.5312C18.8948 12.4687 20 11.3655 20 10V2.46872C20 1.10519 18.8968 0 17.5312 0V0ZM13.1796 9.33075H10.6276C10.3039 9.33075 10.0416 9.06845 10.0416 8.74481C10.0416 8.42117 10.3039 8.15887 10.6276 8.15887H13.1796C13.5032 8.15887 13.7655 8.42117 13.7655 8.74481C13.7655 9.06845 13.5032 9.33075 13.1796 9.33075ZM16.9037 6.82037H10.6276C10.3039 6.82037 10.0416 6.55792 10.0416 6.23444C10.0416 5.9108 10.3039 5.6485 10.6276 5.6485H16.9037C17.2271 5.6485 17.4896 5.9108 17.4896 6.23444C17.4896 6.55792 17.2273 6.82037 16.9037 6.82037ZM16.9037 4.30984H10.6276C10.3039 4.30984 10.0416 4.04755 10.0416 3.72391C10.0416 3.40042 10.3039 3.13797 10.6276 3.13797H16.9037C17.2271 3.13797 17.4896 3.40042 17.4896 3.72391C17.4896 4.04755 17.2273 4.30984 16.9037 4.30984Z" fill="#6F8A9C"/>
<path d="M6.49365 12.1835C6.49365 13.7132 5.25357 14.9533 3.72388 14.9533C2.19418 14.9533 0.954102 13.7132 0.954102 12.1835C0.954102 10.6537 2.19418 9.4136 3.72388 9.4136C5.25357 9.4136 6.49365 10.6537 6.49365 12.1835Z" fill="#6F8A9C"/>
<path d="M3.72391 14.9533C1.66733 14.9533 0 16.6206 0 18.6772V19.4141C0 19.7377 0.262299 20 0.585938 20H6.86203C7.18552 20 7.44797 19.7377 7.44797 19.4141V18.6772C7.44797 16.6206 5.78064 14.9533 3.72391 14.9533Z" fill="#6F8A9C"/>
</svg>
