<svg width="20" height="20" viewBox="0 0 20 20" fill="none" xmlns="http://www.w3.org/2000/svg">
<path d="M14.0705 7.09836C13.9253 8.90461 13.1404 10.5268 11.9532 11.7578H12.3438C12.6676 11.7578 12.9297 12.0199 12.9297 12.3437C12.9297 12.6676 12.6676 12.9297 12.3438 12.9297H10.481C9.47976 13.5526 8.33769 13.9708 7.09839 14.0704C7.38026 17.3697 10.1433 20 13.5157 20C17.0753 20 20 17.0752 20 13.5156C20 10.1433 17.3698 7.38023 14.0705 7.09836ZM14.6875 11.7578H15.8594C16.1833 11.7578 16.4453 12.0199 16.4453 12.3437C16.4453 12.6676 16.1833 12.9297 15.8594 12.9297H14.6875C14.3637 12.9297 14.1016 12.6676 14.1016 12.3437C14.1016 12.0199 14.3637 11.7578 14.6875 11.7578ZM16.5255 16.2954C16.2848 16.5115 15.9144 16.4917 15.698 16.2507C14.5845 15.0079 12.4468 15.0079 11.3333 16.2507C11.117 16.4916 10.7479 16.5128 10.5058 16.2954C10.265 16.0797 10.2449 15.7094 10.4612 15.468C11.2394 14.6 12.3529 14.1016 13.5157 14.1016C14.6784 14.1016 15.7919 14.6 16.5701 15.468C16.7864 15.7094 16.7664 16.0797 16.5255 16.2954Z" fill="#6F8A9C"/>
<path d="M6.48427 9.41406C7.89935 9.41406 9.08267 8.40582 9.35501 7.07031H3.61353C3.88587 8.40582 5.06919 9.41406 6.48427 9.41406Z" fill="#6F8A9C"/>
<path d="M6.48438 12.9297C10.0383 12.9297 12.9297 10.0383 12.9297 6.48438C12.9297 2.93043 10.0383 0 6.48438 0C2.93043 0 0 2.93043 0 6.48438C0 10.0383 2.93043 12.9297 6.48438 12.9297ZM7.65625 3.55469H8.82812C9.15199 3.55469 9.41406 3.81676 9.41406 4.14062C9.41406 4.46449 9.15199 4.72656 8.82812 4.72656H7.65625C7.33238 4.72656 7.07031 4.46449 7.07031 4.14062C7.07031 3.81676 7.33238 3.55469 7.65625 3.55469ZM4.14062 3.55469H5.3125C5.63637 3.55469 5.89844 3.81676 5.89844 4.14062C5.89844 4.46449 5.63637 4.72656 5.3125 4.72656H4.14062C3.81676 4.72656 3.55469 4.46449 3.55469 4.14062C3.55469 3.81676 3.81676 3.55469 4.14062 3.55469ZM2.96875 5.89844H10C10.3239 5.89844 10.5859 6.16051 10.5859 6.48438C10.5859 8.74574 8.74574 10.5859 6.48438 10.5859C4.22301 10.5859 2.38281 8.74574 2.38281 6.48438C2.38281 6.16051 2.64488 5.89844 2.96875 5.89844Z" fill="#6F8A9C"/>
</svg>
